<?xml version="1.0" standalone="no"?><!DOCTYPE svg PUBLIC "-//W3C//DTD SVG 1.1//EN" "http://www.w3.org/Graphics/SVG/1.1/DTD/svg11.dtd"><svg height="1024" node-id="1" sillyvg="true" template-height="1024" template-width="1024" version="1.1" viewBox="0 0 1024 1024" width="1024" xmlns="http://www.w3.org/2000/svg" xmlns:xlink="http://www.w3.org/1999/xlink"><defs node-id="19"><linearGradient gradientUnits="objectBoundingBox" id="SVGID_1_" node-id="4" spreadMethod="pad" x1="512" x2="512" y1="47" y2="977"><stop offset="0" stop-color="#bad7f5"></stop><stop offset="1" stop-color="#e2f0ff"></stop></linearGradient></defs><path d="M 977.00 512.00 L 976.80 526.80 L 976.10 541.50 L 974.90 556.20 L 973.30 570.70 L 971.20 585.20 L 968.70 599.60 L 965.70 613.90 L 962.30 628.00 L 958.50 642.00 L 954.20 655.90 L 949.50 669.70 L 944.30 683.20 L 938.80 696.60 L 932.80 709.80 L 926.40 722.90 L 919.60 735.80 L 912.40 748.40 L 904.80 760.80 L 896.90 773.00 L 888.50 785.00 L 879.70 796.70 L 870.60 808.10 L 861.00 819.20 L 851.10 830.20 L 840.80 840.80 L 830.20 851.10 L 819.20 861.00 L 808.10 870.60 L 796.70 879.70 L 785.00 888.50 L 773.00 896.90 L 760.80 904.80 L 748.40 912.40 L 735.80 919.60 L 722.90 926.40 L 709.80 932.80 L 696.60 938.80 L 683.20 944.30 L 669.70 949.50 L 655.90 954.20 L 642.00 958.50 L 628.00 962.30 L 613.90 965.70 L 599.60 968.70 L 585.20 971.20 L 570.70 973.30 L 556.20 974.90 L 541.50 976.10 L 526.80 976.80 L 512.00 977.00 L 497.20 976.80 L 482.50 976.10 L 467.80 974.90 L 453.30 973.30 L 438.80 971.20 L 424.40 968.70 L 410.10 965.70 L 396.00 962.30 L 382.00 958.50 L 368.10 954.20 L 354.30 949.50 L 340.80 944.30 L 327.40 938.80 L 314.20 932.80 L 301.10 926.40 L 288.20 919.60 L 275.60 912.40 L 263.20 904.80 L 251.00 896.90 L 239.00 888.50 L 227.30 879.70 L 215.90 870.60 L 204.80 861.00 L 193.80 851.10 L 183.20 840.80 L 172.90 830.20 L 163.00 819.20 L 153.40 808.10 L 144.30 796.70 L 135.50 785.00 L 127.10 773.00 L 119.20 760.80 L 111.60 748.40 L 104.40 735.80 L 97.60 722.90 L 91.20 709.80 L 85.20 696.60 L 79.70 683.20 L 74.50 669.70 L 69.80 655.90 L 65.50 642.00 L 61.70 628.00 L 58.30 613.90 L 55.30 599.60 L 52.80 585.20 L 50.70 570.70 L 49.10 556.20 L 47.90 541.50 L 47.20 526.80 L 47.00 512.00 L 47.20 497.20 L 47.90 482.50 L 49.10 467.80 L 50.70 453.30 L 52.80 438.80 L 55.30 424.40 L 58.30 410.10 L 61.70 396.00 L 65.50 382.00 L 69.80 368.10 L 74.50 354.30 L 79.70 340.80 L 85.20 327.40 L 91.20 314.20 L 97.60 301.10 L 104.40 288.20 L 111.60 275.60 L 119.20 263.20 L 127.10 251.00 L 135.50 239.00 L 144.30 227.30 L 153.40 215.90 L 163.00 204.80 L 172.90 193.80 L 183.20 183.20 L 193.80 172.90 L 204.80 163.00 L 215.90 153.40 L 227.30 144.30 L 239.00 135.50 L 251.00 127.10 L 263.20 119.20 L 275.60 111.60 L 288.20 104.40 L 301.10 97.60 L 314.20 91.20 L 327.40 85.20 L 340.80 79.70 L 354.30 74.50 L 368.10 69.80 L 382.00 65.50 L 396.00 61.70 L 410.10 58.30 L 424.40 55.30 L 438.80 52.80 L 453.30 50.70 L 467.80 49.10 L 482.50 47.90 L 497.20 47.20 L 512.00 47.00 L 526.80 47.20 L 541.50 47.90 L 556.20 49.10 L 570.70 50.70 L 585.20 52.80 L 599.60 55.30 L 613.90 58.30 L 628.00 61.70 L 642.00 65.50 L 655.90 69.80 L 669.70 74.50 L 683.20 79.70 L 696.60 85.20 L 709.80 91.20 L 722.90 97.60 L 735.80 104.40 L 748.40 111.60 L 760.80 119.20 L 773.00 127.10 L 785.00 135.50 L 796.70 144.30 L 808.10 153.40 L 819.20 163.00 L 830.20 172.90 L 840.80 183.20 L 851.10 193.80 L 861.00 204.80 L 870.60 215.90 L 879.70 227.30 L 888.50 239.00 L 896.90 251.00 L 904.80 263.20 L 912.40 275.60 L 919.60 288.20 L 926.40 301.10 L 932.80 314.20 L 938.80 327.40 L 944.30 340.80 L 949.50 354.30 L 954.20 368.10 L 958.50 382.00 L 962.30 396.00 L 965.70 410.10 L 968.70 424.40 L 971.20 438.80 L 973.30 453.30 L 974.90 467.80 L 976.10 482.50 L 976.80 497.20 L 977.00 512.00 Z" fill="url(#SVGID_1_)" fill-rule="nonzero" node-id="28" stroke="none" target-height="930" target-width="930" target-x="47" target-y="47"></path><g node-id="50"><path d="M 582.10 764.00 L 581.90 769.60 L 581.20 775.10 L 580.10 780.40 L 578.60 785.50 L 576.70 790.50 L 574.50 795.30 L 571.90 799.90 L 569.00 804.20 L 562.10 812.10 L 554.20 819.00 L 549.90 821.90 L 545.30 824.50 L 540.50 826.70 L 535.50 828.60 L 530.40 830.10 L 525.10 831.20 L 519.60 831.90 L 514.00 832.10 L 508.30 831.90 L 502.90 831.20 L 497.60 830.10 L 492.40 828.60 L 487.40 826.70 L 482.60 824.50 L 478.10 821.90 L 473.70 819.00 L 469.60 815.70 L 462.30 808.30 L 459.00 804.20 L 456.00 799.90 L 453.50 795.30 L 451.20 790.50 L 449.30 785.50 L 447.80 780.40 L 446.70 775.10 L 446.10 769.60 L 445.80 764.00 L 446.10 758.30 L 446.70 752.90 L 447.80 747.60 L 449.30 742.40 L 451.20 737.40 L 453.50 732.60 L 456.00 728.10 L 459.00 723.70 L 462.30 719.60 L 465.80 715.80 L 469.60 712.30 L 473.70 709.00 L 478.10 706.00 L 482.60 703.50 L 487.40 701.20 L 492.40 699.30 L 497.60 697.80 L 502.90 696.70 L 508.30 696.10 L 514.00 695.80 L 519.60 696.10 L 525.10 696.70 L 530.40 697.80 L 535.50 699.30 L 540.50 701.20 L 545.30 703.50 L 549.90 706.00 L 554.20 709.00 L 562.10 715.80 L 569.00 723.70 L 571.90 728.10 L 574.50 732.60 L 576.70 737.40 L 578.60 742.40 L 580.10 747.60 L 581.20 752.90 L 581.90 758.30 L 582.10 764.00 Z" fill="#438ada" fill-rule="nonzero" group-id="1" node-id="32" stroke="none" target-height="136.29999" target-width="136.29999" target-x="445.8" target-y="695.8"></path><path d="M 863.90 787.40 L 164.00 787.40 L 159.70 787.10 L 155.60 786.30 L 151.70 784.90 L 148.00 783.00 L 144.60 780.80 L 141.60 778.10 L 138.90 775.00 L 136.60 771.70 L 134.80 768.00 L 133.40 764.10 L 132.60 760.00 L 132.30 755.60 L 132.30 280.30 L 132.60 275.90 L 133.40 271.80 L 134.80 267.90 L 136.60 264.30 L 138.90 260.90 L 141.60 257.80 L 144.60 255.20 L 148.00 252.90 L 151.70 251.00 L 155.60 249.70 L 159.70 248.90 L 164.00 248.60 L 863.90 248.60 L 868.30 248.90 L 872.40 249.70 L 876.30 251.00 L 879.90 252.90 L 883.30 255.20 L 886.30 257.80 L 889.00 260.90 L 891.30 264.30 L 893.10 267.90 L 894.50 271.80 L 895.30 275.90 L 895.60 280.30 L 895.60 755.60 L 895.30 760.00 L 894.50 764.10 L 893.20 768.00 L 891.30 771.70 L 889.00 775.00 L 886.30 778.10 L 883.30 780.80 L 879.90 783.00 L 876.30 784.90 L 872.40 786.30 L 868.30 787.10 L 863.90 787.40 Z" fill="#438ada" fill-rule="nonzero" group-id="1" node-id="34" stroke="none" target-height="538.80005" target-width="763.3" target-x="132.3" target-y="248.6"></path><path d="M 169.80 272.00 L 858.20 272.00 L 858.20 764.00 L 169.80 764.00 Z" fill="#78b4f4" fill-rule="nonzero" group-id="1" node-id="36" stroke="none" target-height="492" target-width="688.4" target-x="169.8" target-y="272"></path><path d="M 679.00 213.10 L 657.10 214.10 L 637.50 216.20 L 624.80 218.30 L 613.10 220.80 L 602.40 223.60 L 591.80 226.80 L 582.20 230.10 L 573.60 233.40 L 565.10 237.10 L 551.20 244.10 L 542.10 249.40 L 535.20 253.90 L 529.30 258.10 L 522.40 263.80 L 504.50 255.00 L 483.90 246.40 L 471.60 241.80 L 457.30 237.00 L 437.00 231.10 L 414.70 225.90 L 390.90 222.10 L 378.80 220.70 L 366.40 219.90 L 353.70 219.60 L 341.10 219.90 L 328.90 220.70 L 317.10 222.10 L 305.40 223.90 L 294.30 226.00 L 273.20 231.10 L 254.40 237.00 L 241.30 241.80 L 230.10 246.40 L 211.60 255.00 L 195.80 263.80 L 195.80 730.60 L 207.90 725.40 L 229.30 717.60 L 253.90 710.40 L 277.80 704.80 L 290.30 702.40 L 303.90 700.20 L 318.60 698.30 L 333.20 697.00 L 348.60 696.10 L 364.90 695.80 L 381.20 696.10 L 396.30 697.00 L 410.30 698.30 L 424.30 700.20 L 437.00 702.40 L 448.60 704.80 L 470.40 710.40 L 492.20 717.70 L 510.50 725.40 L 520.70 730.60 L 532.00 725.60 L 541.50 721.90 L 552.20 718.10 L 565.90 713.80 L 586.10 708.30 L 609.90 703.30 L 622.80 701.20 L 636.70 699.40 L 650.60 698.10 L 665.30 697.20 L 680.90 696.90 L 696.40 697.20 L 710.80 698.10 L 724.30 699.40 L 737.70 701.20 L 749.90 703.30 L 772.20 708.30 L 790.80 713.80 L 803.20 718.10 L 821.10 725.60 L 831.00 730.60 L 831.00 263.70 L 824.00 258.10 L 818.00 253.90 L 811.10 249.40 L 802.10 244.10 L 788.30 237.20 L 780.00 233.50 L 762.30 226.80 L 752.00 223.60 L 741.70 220.80 L 730.50 218.40 L 718.30 216.20 L 699.60 214.10 L 679.00 213.10 Z" fill="#ffffff" fill-rule="nonzero" group-id="1" node-id="38" stroke="none" target-height="517.5" target-width="635.2" target-x="195.8" target-y="213.1"></path><path d="M 524.40 721.50 L 524.40 271.60 L 543.00 258.50 L 554.70 251.20 L 567.50 244.10 L 580.30 238.50 L 598.10 232.50 L 618.30 227.30 L 638.50 223.70 L 653.40 222.00 L 662.00 221.60 L 582.10 306.00 L 576.00 324.70 L 566.20 358.30 L 558.70 387.80 L 551.40 421.00 L 548.20 438.50 L 545.40 456.30 L 543.10 474.30 L 540.00 505.00 L 534.10 575.80 L 529.10 646.10 L 524.40 721.50 Z" fill="#cfdffc" fill-rule="nonzero" group-id="1" node-id="40" stroke="none" target-height="499.9" target-width="137.59998" target-x="524.4" target-y="221.6"></path><path d="M 473.40 364.10 L 266.40 364.10 L 260.90 363.30 L 255.90 361.30 L 253.00 359.20 L 250.50 356.70 L 248.50 353.80 L 246.40 348.90 L 245.80 346.20 L 245.60 341.00 L 245.80 338.10 L 247.30 332.90 L 248.50 330.50 L 250.50 327.60 L 253.00 325.10 L 255.90 323.00 L 260.90 321.00 L 263.60 320.40 L 266.40 320.20 L 473.40 320.20 L 478.90 321.00 L 483.90 323.00 L 486.80 325.10 L 489.30 327.60 L 491.30 330.50 L 493.40 335.40 L 494.00 338.10 L 494.20 343.30 L 494.00 346.20 L 493.40 348.90 L 491.30 353.80 L 489.30 356.70 L 486.80 359.20 L 483.90 361.30 L 481.50 362.50 L 476.30 363.90 L 473.40 364.10 Z" fill="#cfdffc" fill-rule="nonzero" group-id="1" node-id="42" stroke="none" target-height="43.899994" target-width="248.6" target-x="245.6" target-y="320.2"></path><path d="M 436.50 452.40 L 266.40 452.40 L 260.90 451.60 L 255.90 449.50 L 253.00 447.40 L 250.50 445.00 L 248.50 442.10 L 246.40 437.10 L 245.80 434.40 L 245.60 431.60 L 245.80 426.40 L 246.40 423.70 L 248.50 418.70 L 250.50 415.80 L 253.00 413.40 L 255.90 411.30 L 258.30 410.10 L 263.60 408.70 L 266.40 408.50 L 436.50 408.50 L 442.10 409.20 L 447.00 411.30 L 449.90 413.40 L 452.40 415.80 L 454.50 418.70 L 456.60 423.70 L 457.10 426.40 L 457.30 431.60 L 457.10 434.40 L 456.60 437.10 L 454.50 442.10 L 452.40 445.00 L 449.90 447.40 L 447.00 449.50 L 444.60 450.70 L 439.40 452.10 L 436.50 452.40 Z" fill="#cfdffc" fill-rule="nonzero" group-id="1" node-id="44" stroke="none" target-height="43.899994" target-width="211.69998" target-x="245.6" target-y="408.5"></path><path d="M 473.40 540.60 L 266.40 540.60 L 260.90 539.90 L 255.90 537.80 L 253.00 535.70 L 250.50 533.20 L 248.50 530.30 L 246.40 525.40 L 245.80 522.70 L 245.60 519.80 L 245.80 514.60 L 246.40 511.90 L 248.50 507.00 L 250.50 504.10 L 253.00 501.60 L 255.90 499.50 L 258.30 498.30 L 263.60 496.90 L 266.40 496.70 L 473.40 496.70 L 478.90 497.50 L 483.90 499.50 L 486.80 501.60 L 489.30 504.10 L 491.30 507.00 L 493.40 511.90 L 494.00 514.60 L 494.20 519.80 L 494.00 522.70 L 493.40 525.40 L 491.30 530.30 L 489.30 533.20 L 486.80 535.70 L 483.90 537.80 L 481.50 539.00 L 476.30 540.40 L 473.40 540.60 Z" fill="#cfdffc" fill-rule="nonzero" group-id="1" node-id="46" stroke="none" target-height="43.899963" target-width="248.6" target-x="245.6" target-y="496.7"></path><path d="M 436.50 628.90 L 266.40 628.90 L 260.90 628.10 L 255.90 626.00 L 253.00 624.00 L 250.50 621.50 L 248.50 618.60 L 246.40 613.60 L 245.80 611.00 L 245.60 608.10 L 245.80 602.90 L 246.40 600.20 L 248.50 595.30 L 250.50 592.40 L 253.00 589.90 L 255.90 587.80 L 258.30 586.60 L 263.60 585.20 L 266.40 585.00 L 436.50 585.00 L 442.10 585.70 L 447.00 587.80 L 449.90 589.90 L 452.40 592.40 L 454.50 595.30 L 456.60 600.20 L 457.10 602.90 L 457.30 608.10 L 457.10 611.00 L 456.60 613.70 L 454.50 618.60 L 452.40 621.50 L 449.90 624.00 L 447.00 626.00 L 444.60 627.20 L 439.40 628.70 L 436.50 628.90 Z" fill="#cfdffc" fill-rule="nonzero" group-id="1" node-id="48" stroke="none" target-height="43.900024" target-width="211.69998" target-x="245.6" target-y="585"></path></g></svg>